HIERARCHY
ROOT Hips
{
	OFFSET 0.000000 0.000000 0.000000
	CHANNELS 6 Xposition Yposition Zposition Zrotation Yrotation Xrotation 
	JOINT LHipJoint
	{
		OFFSET 0.000000 0.000000 0.000000
		CHANNELS 3 Zrotation Yrotation Xrotation
		JOINT LeftUpLeg
		{
			OFFSET 1.363060 -1.794630 0.839290
			CHANNELS 3 Zrotation Yrotation Xrotation
			JOINT LeftLeg
			{
				OFFSET 2.448110 -6.726130 0.000000
				CHANNELS 3 Zrotation Yrotation Xrotation
				JOINT LeftFoot
				{
					OFFSET 2.562200 -7.039590 0.000000
					CHANNELS 3 Zrotation Yrotation Xrotation
					JOINT LeftToeBase
					{
						OFFSET 0.157640 -0.433110 2.322550
						CHANNELS 3 Zrotation Yrotation Xrotation
						End Site
						{
							OFFSET 0.000000 0.000000 0.000000
						}
					}
				}
			}
		}
	}
	JOINT RHipJoint
	{
		OFFSET 0.000000 0.000000 0.000000
		CHANNELS 3 Zrotation Yrotation Xrotation
		JOINT RightUpLeg
		{
			OFFSET -1.305520 -1.794630 0.839290
			CHANNELS 3 Zrotation Yrotation Xrotation
			JOINT RightLeg
			{
				OFFSET -2.542530 -6.985550 0.000000
				CHANNELS 3 Zrotation Yrotation Xrotation
				JOINT RightFoot
				{
					OFFSET -2.568260 -7.056230 0.000000
					CHANNELS 3 Zrotation Yrotation Xrotation
					JOINT RightToeBase
					{
						OFFSET -0.164730 -0.452590 2.363150
						CHANNELS 3 Zrotation Yrotation Xrotation
						End Site
						{
							OFFSET 0.000000 0.000000 0.000000
						}
					}
				}
			}
		}
	}
}
MOTION
Frames: 25
Frame Time: 0.008333
18.621419 16.620964 2.203180 -7.925661 -87.134536 30.599931 -10.977505 0.876803 -3.274167 -5.325938 0.673191 -6.548105 -2.036122 1.009382 25.830030 0.325126 -0.671499 -11.271092 -0.059400 0.000000 -58.938500 7.806506 0.769214 0.117584 10.048086 4.147518 -46.379867 3.018220 -0.376302 11.335904 -0.527340 -3.486718 7.954589 -1.845700 0.000000 -13.821600
18.483653 16.648428 2.173652 -11.369267 -86.903787 34.122991 -11.136791 0.940963 -3.250574 -4.711647 0.758329 -7.302816 -1.896391 1.218407 27.475042 0.262807 -0.860740 -9.695833 -0.015700 0.000001 -61.698800 7.729026 0.693092 0.023927 10.518501 4.136304 -46.276788 3.052847 -0.459974 12.224786 -0.516025 -3.374469 7.454784 -1.776800 0.000000 -13.149000
18.347546 16.678416 2.141857 -13.236304 -86.615103 36.070046 -11.297017 0.992992 -3.224340 -4.127978 0.818716 -8.157093 -1.740087 1.424421 29.236104 0.208068 -1.094540 -8.006215 0.007800 0.000000 -63.939400 7.648773 0.621916 -0.061130 10.941119 4.096359 -46.055526 3.091021 -0.510695 12.892629 -0.520111 -3.324197 6.835622 -1.720900 0.000001 -12.486399
18.213509 16.710182 2.107738 -13.796782 -86.275418 36.709001 -11.446211 1.031602 -3.192038 -3.593752 0.828982 -9.094688 -1.569774 1.622709 31.091174 0.168320 -1.332275 -6.251474 0.004300 0.000000 -65.434800 7.576677 0.558186 -0.138603 11.309260 4.017989 -45.733222 3.130038 -0.533086 13.351517 -0.538137 -3.330280 6.153290 -1.677300 0.000000 -11.886801
18.081285 16.743081 2.071897 -13.520562 -85.890737 36.513263 -11.583428 1.056247 -3.151686 -3.105629 0.785413 -10.108722 -1.389102 1.810863 33.022353 0.148678 -1.535328 -4.490229 -0.026100 0.000000 -66.043300 7.513170 0.501228 -0.207996 11.632678 3.908751 -45.321242 3.168926 -0.528679 13.606780 -0.568788 -3.396162 5.464070 -1.649400 -0.000000 -11.344800
17.950792 16.776553 2.034877 -12.714493 -85.470403 35.790045 -11.706999 1.066805 -3.102547 -2.670055 0.684862 -11.183753 -1.202299 1.986192 35.005569 0.153125 -1.652151 -2.788574 -0.075900 -0.000000 -65.663600 7.459070 0.450929 -0.270159 11.915199 3.770491 -44.836864 3.206068 -0.501796 13.682404 -0.609007 -3.513438 4.811969 -1.636000 -0.000000 -10.876700
17.822322 16.810152 1.997148 -11.593485 -85.026090 34.749039 -11.814847 1.063353 -3.046585 -2.296572 0.531674 -12.298711 -1.014051 2.146841 37.014577 0.183516 -1.627877 -1.213746 -0.129500 -0.000000 -64.268000 7.415660 0.407550 -0.327664 12.158899 3.601441 -44.298498 3.239941 -0.458475 13.614611 -0.654786 -3.665789 4.223401 -1.633401 -0.000000 -10.481600
17.695692 16.843614 1.959419 -10.397208 -84.571757 33.630024 -11.909313 1.046138 -2.986893 -1.980842 0.344301 -13.440203 -0.829033 2.292994 39.026711 0.239361 -1.417983 0.173282 -0.166900 -0.000001 -61.918600 7.380065 0.369059 -0.379888 12.372786 3.415290 -43.718198 3.269956 -0.402040 13.428279 -0.703811 -3.847815 3.717497 -1.641699 0.000001 -10.154400
17.570793 16.876755 1.922103 -9.224279 -84.124183 32.525674 -11.989808 1.015962 -2.928501 -1.727640 0.141986 -14.588346 -0.651178 2.425169 41.016183 0.319502 -0.982315 1.324487 -0.167101 0.000000 -58.759400 7.352396 0.335022 -0.428478 12.559329 3.217563 -43.107812 3.295373 -0.337568 13.158692 -0.753012 -4.044219 3.293163 -1.656900 0.000000 -9.884800
17.447609 16.909516 1.885772 -8.210528 -83.698578 31.572808 -12.059689 0.973199 -2.876023 -1.526258 -0.047422 -15.733219 -0.483319 2.545166 42.961469 0.422183 -0.301570 2.209988 -0.114800 0.000000 -55.011699 7.328645 0.302379 -0.471438 12.729788 3.028245 -42.472948 3.316707 -0.266901 12.825479 -0.801598 -4.252731 2.945218 -1.679100 -0.000001 -9.660700
17.326426 16.941944 1.850360 -7.322003 -83.312445 30.728561 -12.116722 0.919383 -2.834791 -1.386334 -0.207801 -16.852418 -0.327067 2.653678 44.834299 0.546954 0.637802 2.824423 -0.001300 -0.000000 -50.946800 7.310764 0.272222 -0.511626 12.880370 2.847823 -41.819583 3.333522 -0.194627 12.461933 -0.847029 -4.453954 2.648549 -1.701100 0.000000 -9.455500
17.207062 16.974069 1.815938 -6.582863 -82.978556 30.018533 -12.162374 0.855452 -2.808216 -1.302774 -0.321116 -17.935773 -0.183404 2.751841 46.612893 0.693279 1.823395 3.178541 0.171300 0.000000 -46.835500 7.296812 0.243290 -0.548117 13.015298 2.689027 -41.149136 3.346427 -0.121660 12.081311 -0.889119 -4.643316 2.382710 -1.720500 -0.000000 -9.249000
17.089628 17.005956 1.782365 -5.984047 -82.706238 29.430035 -12.197134 0.782397 -2.798468 -1.272217 -0.376481 -18.974139 -0.052913 2.840449 48.277999 0.860615 3.226402 3.296081 0.392600 0.000000 -42.905700 7.285702 0.215331 -0.580291 13.136032 2.561176 -40.459858 3.355725 -0.048340 11.691334 -0.928086 -4.817535 2.127080 -1.734900 -0.000000 -9.023200
16.973935 17.037615 1.749327 -5.485772 -82.501117 28.924241 -12.220605 0.701777 -2.806290 -1.293804 -0.370474 -19.960164 0.063842 2.919670 49.813051 1.047582 4.803197 3.208229 0.645900 -0.000000 -39.317400 7.277736 0.188756 -0.608447 13.241378 2.466651 -39.751106 3.361699 0.024937 11.298491 -0.963898 -4.971285 1.861793 -1.740900 -0.000000 -8.756400
16.860168 17.068957 1.716493 -5.046712 -82.363561 28.459595 -12.232430 0.615276 -2.830826 -1.365200 -0.305441 -20.890752 0.166293 2.989591 51.206068 1.251047 6.496481 2.948636 0.910800 0.000000 -36.151700 7.273345 0.164167 -0.632672 13.330190 2.405230 -39.021982 3.364588 0.098399 10.902890 -0.996798 -5.102304 1.574072 -1.736700 0.000000 -8.433000
16.748255 17.099891 1.683389 -4.600884 -82.290455 27.969491 -12.231326 0.525626 -2.869111 -1.488441 -0.190775 -21.765234 0.253975 3.049802 52.448376 1.466082 8.242819 2.551271 1.166700 -0.000000 -33.425900 7.274749 0.142739 -0.654132 13.399352 2.366394 -38.277176 3.364741 0.170998 10.510861 -1.025801 -5.202152 1.254491 -1.719400 0.000000 -8.039700
16.637852 17.130256 1.649987 -4.171719 -82.273806 27.484328 -12.220044 0.432922 -2.920170 -1.646286 -0.032460 -22.590148 0.326342 3.101616 53.536706 1.685130 9.967662 2.048073 1.393100 0.000000 -31.119601 7.278563 0.123743 -0.670737 13.451955 2.365367 -37.504531 3.361465 0.246803 10.092980 -1.054485 -5.294365 0.917778 -1.696400 -0.000000 -7.586300
16.528928 17.159778 1.615802 -3.649961 -82.304874 26.892401 -12.195918 0.341980 -2.977129 -1.848406 0.149319 -23.367134 0.383501 3.143784 54.467722 1.900307 11.608946 1.471134 1.576199 -0.000000 -29.186701 7.290028 0.108835 -0.685635 13.483272 2.372628 -36.720542 3.355561 0.321798 9.672314 -1.079205 -5.357099 0.558702 -1.662200 -0.000000 -7.067100
16.421342 17.188240 1.580870 -3.020694 -82.372271 26.185394 -12.160348 0.254176 -3.036167 -2.086635 0.339253 -24.104531 0.425647 3.176742 55.242566 2.102732 13.104766 0.848781 1.706000 -0.000000 -27.575400 7.308537 0.097855 -0.699673 13.495082 2.383989 -35.927931 3.347164 0.396422 9.241673 -1.100385 -5.396783 0.191768 -1.620500 -0.000000 -6.495900
16.315042 17.215411 1.545245 -2.264142 -82.464958 25.343710 -12.114402 0.171372 -3.092446 -2.355696 0.521128 -24.809558 0.453321 3.200815 55.864617 2.284206 14.405228 0.205440 1.778399 0.000000 -26.233800 7.334085 0.090749 -0.714126 13.489495 2.390217 -35.133433 3.336629 0.469748 8.803749 -1.117532 -5.414469 -0.170978 -1.573400 0.000000 -5.890000
16.209807 17.241093 1.509138 -1.369945 -82.572911 24.360249 -12.059569 0.095456 -3.141499 -2.650361 0.680928 -25.487238 0.467118 3.216312 56.337633 2.438071 15.474827 -0.439239 1.794800 0.000000 -25.113000 7.366330 0.086998 -0.730121 13.468731 2.383660 -34.342329 3.324307 0.540845 8.362871 -1.130159 -5.411366 -0.518005 -1.523300 0.000000 -5.269400
16.105371 17.265123 1.472886 -0.345992 -82.687258 23.247526 -11.997468 0.026861 -3.179595 -2.964303 0.805825 -26.145323 0.467811 3.223584 56.667486 2.559848 16.293606 -1.072028 1.760400 0.000000 -24.166400 7.404132 0.085926 -0.749036 13.437410 2.358015 -33.564481 3.311124 0.608499 7.927832 -1.137802 -5.387153 -0.843060 -1.471300 0.000000 -4.652000
16.001924 17.287413 1.436850 0.785291 -82.802184 22.024337 -11.929633 -0.034089 -3.204628 -3.292095 0.888491 -26.784813 0.456096 3.223247 56.859274 2.647570 16.858153 -1.685257 1.683100 0.000000 -23.352300 7.446203 0.087144 -0.772305 13.398601 2.310093 -32.802439 3.297473 0.671591 7.507308 -1.140459 -5.343269 -1.142823 -1.418800 -0.000000 -4.053500
15.899124 17.307939 1.401500 1.983875 -82.913216 20.736600 -11.857663 -0.088550 -3.215433 -3.626289 0.924165 -27.410420 0.432629 3.215678 56.918710 2.701776 17.179680 -2.278061 1.571200 0.000000 -22.630000 7.490428 0.089662 -0.800444 13.357667 2.241380 -32.062456 3.284259 0.729660 7.108694 -1.138611 -5.281921 -1.418843 -1.366300 0.000000 -3.485200
15.797095 17.326741 1.367149 3.212264 -83.020024 19.417951 -11.782603 -0.137008 -3.212144 -3.961680 0.914128 -28.019276 0.397927 3.201451 56.851019 2.725240 17.282762 -2.853882 1.433500 0.000000 -21.973200 7.535375 0.092999 -0.833985 13.317408 2.154148 -31.342887 3.271789 0.782153 6.740732 -1.132908 -5.204675 -1.678139 -1.313500 0.000000 -2.954200
